<svg xmlns="http://www.w3.org/2000/svg" xmlns:xlink="http://www.w3.org/1999/xlink" contentStyleType="text/css" data-diagram-type="ACTIVITY" height="565px" preserveAspectRatio="none" style="width:312px;height:565px;background:#FFFFFF;" version="1.1" viewBox="0 0 312 565" width="312px" zoomAndPan="magnify"><?plantuml 1.2026.6?><defs/><g><g class="title" data-source-line="1"><text fill="#000000" font-family="sans-serif" font-size="14" font-weight="700" lengthAdjust="spacing" textLength="270.9287" x="20" y="33.5352">Onboarding-Prozess (onboard.bpmn)</text></g><ellipse cx="154.4644" cy="62.4883" fill="#222222" rx="10" ry="10" style="stroke:#222222;stroke-width:1;"/><rect fill="#F1F1F1" height="34.1328" rx="12.5" ry="12.5" style="stroke:#181818;stroke-width:0.5;" width="92.0879" x="108.4204" y="92.4883"/><text fill="#000000" font-family="sans-serif" font-size="12" lengthAdjust="spacing" textLength="68.291" x="122.2173" y="114.0898">Bewerber:in</text><rect fill="#F1F1F1" height="34.1328" rx="12.5" ry="12.5" style="stroke:#181818;stroke-width:0.5;" width="100.6836" x="104.1226" y="146.6211"/><text fill="#000000" font-family="sans-serif" font-size="12" lengthAdjust="spacing" textLength="76.8867" x="117.9194" y="168.2227">Create Ticket</text><rect fill="#555555" height="6" rx="2.5" ry="2.5" style="stroke:#555555;stroke-width:1;" width="269.7383" x="19.5952" y="200.7539"/><rect fill="#F1F1F1" height="34.1328" rx="12.5" ry="12.5" style="stroke:#181818;stroke-width:0.5;" width="94.4609" x="39.6929" y="280.8867"/><text fill="#000000" font-family="sans-serif" font-size="12" lengthAdjust="spacing" textLength="70.6641" x="53.4897" y="302.4883">Timer Catch</text><rect fill="#F1F1F1" height="34.1328" rx="12.5" ry="12.5" style="stroke:#181818;stroke-width:0.5;" width="110.6563" x="31.5952" y="335.0195"/><text fill="#000000" font-family="sans-serif" font-size="12" lengthAdjust="spacing" textLength="86.8594" x="45.3921" y="356.6211">Message Catch</text><rect fill="#F1F1F1" height="34.1328" rx="12.5" ry="12.5" style="stroke:#181818;stroke-width:0.5;" width="100.8594" x="36.4937" y="389.1523"/><text fill="#000000" font-family="sans-serif" font-size="12" lengthAdjust="spacing" textLength="77.0625" x="50.2905" y="410.7539">Ende (Path A)</text><rect fill="#F1F1F1" height="34.1328" rx="12.5" ry="12.5" style="stroke:#181818;stroke-width:0.5;" width="90.1602" x="178.7124" y="226.7539"/><text fill="#000000" font-family="sans-serif" font-size="12" lengthAdjust="spacing" textLength="66.3633" x="192.5093" y="248.3555">Subprocess</text><rect fill="#F1F1F1" height="34.1328" rx="12.5" ry="12.5" style="stroke:#181818;stroke-width:0.5;" width="99.4707" x="174.0571" y="280.8867"/><text fill="#000000" font-family="sans-serif" font-size="12" lengthAdjust="spacing" textLength="75.6738" x="187.854" y="302.4883">Internal Task</text><rect fill="#F1F1F1" height="34.1328" rx="12.5" ry="12.5" style="stroke:#181818;stroke-width:0.5;" width="105.9805" x="170.8022" y="335.0195"/><text fill="#000000" font-family="sans-serif" font-size="12" lengthAdjust="spacing" textLength="82.1836" x="184.5991" y="356.6211">Internal Timer</text><rect fill="#F1F1F1" height="34.1328" rx="12.5" ry="12.5" style="stroke:#181818;stroke-width:0.5;" width="107.082" x="170.2515" y="389.1523"/><text fill="#000000" font-family="sans-serif" font-size="12" lengthAdjust="spacing" textLength="83.2852" x="184.0483" y="410.7539">Internal Signal</text><rect fill="#F1F1F1" height="34.1328" rx="12.5" ry="12.5" style="stroke:#181818;stroke-width:0.5;" width="99.4824" x="174.0513" y="443.2852"/><text fill="#000000" font-family="sans-serif" font-size="12" lengthAdjust="spacing" textLength="75.6855" x="187.8481" y="464.8867">Ende (Path B)</text><rect fill="#555555" height="6" rx="2.5" ry="2.5" style="stroke:#555555;stroke-width:1;" width="269.7383" x="19.5952" y="497.418"/><ellipse cx="154.4644" cy="534.418" fill="none" rx="11" ry="11" style="stroke:#222222;stroke-width:1;"/><ellipse cx="154.4644" cy="534.418" fill="#222222" rx="6" ry="6" style="stroke:#222222;stroke-width:1;"/><line style="stroke:#181818;stroke-width:1;" x1="154.4644" x2="154.4644" y1="72.4883" y2="92.4883"/><polygon fill="#181818" points="150.4644,82.4883,154.4644,92.4883,158.4644,82.4883,154.4644,86.4883" style="stroke:#181818;stroke-width:1;stroke-linejoin:miter;stroke-miterlimit:10;"/><line style="stroke:#181818;stroke-width:1;" x1="154.4644" x2="154.4644" y1="126.6211" y2="146.6211"/><polygon fill="#181818" points="150.4644,136.6211,154.4644,146.6211,158.4644,136.6211,154.4644,140.6211" style="stroke:#181818;stroke-width:1;stroke-linejoin:miter;stroke-miterlimit:10;"/><line style="stroke:#181818;stroke-width:1;" x1="86.9233" x2="86.9233" y1="315.0195" y2="335.0195"/><polygon fill="#181818" points="82.9233,325.0195,86.9233,335.0195,90.9233,325.0195,86.9233,329.0195" style="stroke:#181818;stroke-width:1;stroke-linejoin:miter;stroke-miterlimit:10;"/><line style="stroke:#181818;stroke-width:1;" x1="86.9233" x2="86.9233" y1="369.1523" y2="389.1523"/><polygon fill="#181818" points="82.9233,379.1523,86.9233,389.1523,90.9233,379.1523,86.9233,383.1523" style="stroke:#181818;stroke-width:1;stroke-linejoin:miter;stroke-miterlimit:10;"/><line style="stroke:#181818;stroke-width:1;" x1="223.7925" x2="223.7925" y1="260.8867" y2="280.8867"/><polygon fill="#181818" points="219.7925,270.8867,223.7925,280.8867,227.7925,270.8867,223.7925,274.8867" style="stroke:#181818;stroke-width:1;stroke-linejoin:miter;stroke-miterlimit:10;"/><line style="stroke:#181818;stroke-width:1;" x1="223.7925" x2="223.7925" y1="315.0195" y2="335.0195"/><polygon fill="#181818" points="219.7925,325.0195,223.7925,335.0195,227.7925,325.0195,223.7925,329.0195" style="stroke:#181818;stroke-width:1;stroke-linejoin:miter;stroke-miterlimit:10;"/><line style="stroke:#181818;stroke-width:1;" x1="223.7925" x2="223.7925" y1="369.1523" y2="389.1523"/><polygon fill="#181818" points="219.7925,379.1523,223.7925,389.1523,227.7925,379.1523,223.7925,383.1523" style="stroke:#181818;stroke-width:1;stroke-linejoin:miter;stroke-miterlimit:10;"/><line style="stroke:#181818;stroke-width:1;" x1="223.7925" x2="223.7925" y1="423.2852" y2="443.2852"/><polygon fill="#181818" points="219.7925,433.2852,223.7925,443.2852,227.7925,433.2852,223.7925,437.2852" style="stroke:#181818;stroke-width:1;stroke-linejoin:miter;stroke-miterlimit:10;"/><line style="stroke:#181818;stroke-width:1;" x1="86.9233" x2="86.9233" y1="206.7539" y2="280.8867"/><polygon fill="#181818" points="82.9233,270.8867,86.9233,280.8867,90.9233,270.8867,86.9233,274.8867" style="stroke:#181818;stroke-width:1;stroke-linejoin:miter;stroke-miterlimit:10;"/><line style="stroke:#181818;stroke-width:1;" x1="223.7925" x2="223.7925" y1="206.7539" y2="226.7539"/><polygon fill="#181818" points="219.7925,216.7539,223.7925,226.7539,227.7925,216.7539,223.7925,220.7539" style="stroke:#181818;stroke-width:1;stroke-linejoin:miter;stroke-miterlimit:10;"/><line style="stroke:#181818;stroke-width:1;" x1="86.9233" x2="86.9233" y1="423.2852" y2="497.418"/><polygon fill="#181818" points="82.9233,487.418,86.9233,497.418,90.9233,487.418,86.9233,491.418" style="stroke:#181818;stroke-width:1;stroke-linejoin:miter;stroke-miterlimit:10;"/><line style="stroke:#181818;stroke-width:1;" x1="223.7925" x2="223.7925" y1="477.418" y2="497.418"/><polygon fill="#181818" points="219.7925,487.418,223.7925,497.418,227.7925,487.418,223.7925,491.418" style="stroke:#181818;stroke-width:1;stroke-linejoin:miter;stroke-miterlimit:10;"/><line style="stroke:#181818;stroke-width:1;" x1="154.4644" x2="154.4644" y1="180.7539" y2="200.7539"/><polygon fill="#181818" points="150.4644,190.7539,154.4644,200.7539,158.4644,190.7539,154.4644,194.7539" style="stroke:#181818;stroke-width:1;stroke-linejoin:miter;stroke-miterlimit:10;"/><line style="stroke:#181818;stroke-width:1;" x1="154.4644" x2="154.4644" y1="503.418" y2="523.418"/><polygon fill="#181818" points="150.4644,513.418,154.4644,523.418,158.4644,513.418,154.4644,517.418" style="stroke:#181818;stroke-width:1;stroke-linejoin:miter;stroke-miterlimit:10;"/><?plantuml-src POwn3e9038RtUugECEW3m2J4mS580Y_GWtfSm1xfrPZuz9wm69oQVktVh-fr9hYn3IY3PtTe9BmfHiZ2nevsUN1kJ5GKDGLKz2An98NdChMr42f1v_k9j3Jt89C1A19ua42Dse_b2gxfA3hwHMSU2B86TOHJlcK17NfUf-tJBXBw5DksBwmaZ3Dq6ASz-jfshFKkbJzJbKp40woVHWtB1m00?></g></svg>