<svg xmlns="http://www.w3.org/2000/svg" xmlns:xlink="http://www.w3.org/1999/xlink" contentStyleType="text/css" data-diagram-type="ACTIVITY" height="803px" preserveAspectRatio="none" style="width:618px;height:803px;background:#FFFFFF;" version="1.1" viewBox="0 0 618 803" width="618px" zoomAndPan="magnify"><?plantuml 1.2026.6?><defs/><g><g class="title" data-source-line="1"><text fill="#000000" font-family="sans-serif" font-size="14" font-weight="700" lengthAdjust="spacing" textLength="417.4639" x="99.4858" y="33.5352">Thinkport Sales-Prozess (thinkport-sales-prozess.bpmn)</text></g><ellipse cx="372.594" cy="62.4883" fill="#222222" rx="10" ry="10" style="stroke:#222222;stroke-width:1;"/><rect fill="#F1F1F1" height="34.1328" rx="12.5" ry="12.5" style="stroke:#181818;stroke-width:0.5;" width="166.9766" x="289.1057" y="92.4883"/><text fill="#000000" font-family="sans-serif" font-size="12" lengthAdjust="spacing" textLength="143.1797" x="302.9026" y="114.0898">Qualifizieren (Thinkport)</text><polygon fill="#F1F1F1" points="340.644,146.6211,404.5439,146.6211,416.5439,158.6211,404.5439,170.6211,340.644,170.6211,328.644,158.6211,340.644,146.6211" style="stroke:#181818;stroke-width:0.5;stroke-linejoin:miter;stroke-miterlimit:10;"/><text fill="#000000" font-family="sans-serif" font-size="11" lengthAdjust="spacing" textLength="63.8999" x="340.644" y="162.7783">Qualifiziert?</text><text fill="#000000" font-family="sans-serif" font-size="11" lengthAdjust="spacing" textLength="9.4961" x="319.1479" y="156.3008">Ja</text><text fill="#000000" font-family="sans-serif" font-size="11" lengthAdjust="spacing" textLength="24.2612" x="416.5439" y="156.3008">Nein</text><rect fill="#F1F1F1" height="34.1328" rx="12.5" ry="12.5" style="stroke:#181818;stroke-width:0.5;" width="126.6758" x="153.6958" y="180.6211"/><text fill="#000000" font-family="sans-serif" font-size="12" lengthAdjust="spacing" textLength="102.8789" x="167.4927" y="202.2227">Angebot Erstellen</text><rect fill="#F1F1F1" height="34.1328" rx="12.5" ry="12.5" style="stroke:#181818;stroke-width:0.5;" width="138.2773" x="147.895" y="234.7539"/><text fill="#000000" font-family="sans-serif" font-size="12" lengthAdjust="spacing" textLength="114.4805" x="161.6919" y="256.3555">Angebot Versenden</text><rect fill="#F1F1F1" height="34.1328" rx="12.5" ry="12.5" style="stroke:#181818;stroke-width:0.5;" width="191.791" x="121.1382" y="288.8867"/><text fill="#000000" font-family="sans-serif" font-size="12" lengthAdjust="spacing" textLength="167.9941" x="134.9351" y="310.4883">Message: Angebot -&gt; Kunde</text><polygon fill="#F1F1F1" points="158.7896,343.0195,275.2778,343.0195,287.2778,355.0195,275.2778,367.0195,158.7896,367.0195,146.7896,355.0195,158.7896,343.0195" style="stroke:#181818;stroke-width:0.5;stroke-linejoin:miter;stroke-miterlimit:10;"/><text fill="#000000" font-family="sans-serif" font-size="11" lengthAdjust="spacing" textLength="116.4883" x="158.7896" y="359.1768">Kunde Angenommen?</text><text fill="#000000" font-family="sans-serif" font-size="11" lengthAdjust="spacing" textLength="9.4961" x="137.2935" y="352.6992">Ja</text><text fill="#000000" font-family="sans-serif" font-size="11" lengthAdjust="spacing" textLength="24.2612" x="287.2778" y="352.6992">Nein</text><rect fill="#F1F1F1" height="34.1328" rx="12.5" ry="12.5" style="stroke:#181818;stroke-width:0.5;" width="186.1309" x="16" y="377.0195"/><text fill="#000000" font-family="sans-serif" font-size="12" lengthAdjust="spacing" textLength="162.334" x="29.7969" y="398.6211">Message: Auftrag &lt;- Kunde</text><rect fill="#F1F1F1" height="34.1328" rx="12.5" ry="12.5" style="stroke:#181818;stroke-width:0.5;" width="128.9844" x="44.5732" y="431.1523"/><text fill="#000000" font-family="sans-serif" font-size="12" lengthAdjust="spacing" textLength="105.1875" x="58.3701" y="452.7539">Vertrag Aufsetzen</text><rect fill="#F1F1F1" height="34.1328" rx="12.5" ry="12.5" style="stroke:#181818;stroke-width:0.5;" width="86.293" x="65.9189" y="485.2852"/><text fill="#000000" font-family="sans-serif" font-size="12" lengthAdjust="spacing" textLength="62.4961" x="79.7158" y="506.8867">Uebergabe</text><rect fill="#F1F1F1" height="34.1328" rx="12.5" ry="12.5" style="stroke:#181818;stroke-width:0.5;" width="136.3027" x="40.9141" y="539.418"/><text fill="#000000" font-family="sans-serif" font-size="12" lengthAdjust="spacing" textLength="112.5059" x="54.7109" y="561.0195">Kickoff Vorbereiten</text><rect fill="#F1F1F1" height="34.1328" rx="12.5" ry="12.5" style="stroke:#181818;stroke-width:0.5;" width="121.5078" x="48.3115" y="593.5508"/><text fill="#000000" font-family="sans-serif" font-size="12" lengthAdjust="spacing" textLength="97.7109" x="62.1084" y="615.1523">Projekt Gestartet</text><rect fill="#F1F1F1" height="34.1328" rx="12.5" ry="12.5" style="stroke:#181818;stroke-width:0.5;" width="108.7109" x="54.71" y="647.6836"/><text fill="#000000" font-family="sans-serif" font-size="12" lengthAdjust="spacing" textLength="84.9141" x="68.5068" y="669.2852">Ende (Success)</text><rect fill="#F1F1F1" height="34.1328" rx="12.5" ry="12.5" style="stroke:#181818;stroke-width:0.5;" width="205.7422" x="222.1309" y="377.0195"/><text fill="#000000" font-family="sans-serif" font-size="12" lengthAdjust="spacing" textLength="181.9453" x="235.9277" y="398.6211">Message: Ablehnung &lt;- Kunde</text><rect fill="#F1F1F1" height="34.1328" rx="12.5" ry="12.5" style="stroke:#181818;stroke-width:0.5;" width="120.5645" x="264.7197" y="431.1523"/><text fill="#000000" font-family="sans-serif" font-size="12" lengthAdjust="spacing" textLength="96.7676" x="278.5166" y="452.7539">Auftrag Verloren</text><rect fill="#F1F1F1" height="34.1328" rx="12.5" ry="12.5" style="stroke:#181818;stroke-width:0.5;" width="113.0703" x="268.4668" y="485.2852"/><text fill="#000000" font-family="sans-serif" font-size="12" lengthAdjust="spacing" textLength="89.2734" x="282.2637" y="506.8867">Ende (Rejected)</text><polygon fill="#F1F1F1" points="217.0337,687.8164,229.0337,699.8164,217.0337,711.8164,205.0337,699.8164,217.0337,687.8164" style="stroke:#181818;stroke-width:0.5;stroke-linejoin:miter;stroke-miterlimit:10;"/><rect fill="#F1F1F1" height="34.1328" rx="12.5" ry="12.5" style="stroke:#181818;stroke-width:0.5;" width="83.3105" x="486.499" y="180.6211"/><text fill="#000000" font-family="sans-serif" font-size="12" lengthAdjust="spacing" textLength="59.5137" x="500.2959" y="202.2227">Verworfen</text><rect fill="#F1F1F1" height="34.1328" rx="12.5" ry="12.5" style="stroke:#181818;stroke-width:0.5;" width="140.5625" x="457.873" y="234.7539"/><text fill="#000000" font-family="sans-serif" font-size="12" lengthAdjust="spacing" textLength="116.7656" x="471.6699" y="256.3555">Ende (Not Qualified)</text><polygon fill="#F1F1F1" points="372.594,717.8164,384.594,729.8164,372.594,741.8164,360.594,729.8164,372.594,717.8164" style="stroke:#181818;stroke-width:0.5;stroke-linejoin:miter;stroke-miterlimit:10;"/><ellipse cx="372.594" cy="772.8164" fill="none" rx="11" ry="11" style="stroke:#222222;stroke-width:1;"/><ellipse cx="372.594" cy="772.8164" fill="#222222" rx="6" ry="6" style="stroke:#222222;stroke-width:1;"/><line style="stroke:#181818;stroke-width:1;" x1="372.594" x2="372.594" y1="72.4883" y2="92.4883"/><polygon fill="#181818" points="368.594,82.4883,372.594,92.4883,376.594,82.4883,372.594,86.4883" style="stroke:#181818;stroke-width:1;stroke-linejoin:miter;stroke-miterlimit:10;"/><line style="stroke:#181818;stroke-width:1;" x1="217.0337" x2="217.0337" y1="214.7539" y2="234.7539"/><polygon fill="#181818" points="213.0337,224.7539,217.0337,234.7539,221.0337,224.7539,217.0337,228.7539" style="stroke:#181818;stroke-width:1;stroke-linejoin:miter;stroke-miterlimit:10;"/><line style="stroke:#181818;stroke-width:1;" x1="217.0337" x2="217.0337" y1="268.8867" y2="288.8867"/><polygon fill="#181818" points="213.0337,278.8867,217.0337,288.8867,221.0337,278.8867,217.0337,282.8867" style="stroke:#181818;stroke-width:1;stroke-linejoin:miter;stroke-miterlimit:10;"/><line style="stroke:#181818;stroke-width:1;" x1="109.0654" x2="109.0654" y1="411.1523" y2="431.1523"/><polygon fill="#181818" points="105.0654,421.1523,109.0654,431.1523,113.0654,421.1523,109.0654,425.1523" style="stroke:#181818;stroke-width:1;stroke-linejoin:miter;stroke-miterlimit:10;"/><line style="stroke:#181818;stroke-width:1;" x1="109.0654" x2="109.0654" y1="465.2852" y2="485.2852"/><polygon fill="#181818" points="105.0654,475.2852,109.0654,485.2852,113.0654,475.2852,109.0654,479.2852" style="stroke:#181818;stroke-width:1;stroke-linejoin:miter;stroke-miterlimit:10;"/><line style="stroke:#181818;stroke-width:1;" x1="109.0654" x2="109.0654" y1="519.418" y2="539.418"/><polygon fill="#181818" points="105.0654,529.418,109.0654,539.418,113.0654,529.418,109.0654,533.418" style="stroke:#181818;stroke-width:1;stroke-linejoin:miter;stroke-miterlimit:10;"/><line style="stroke:#181818;stroke-width:1;" x1="109.0654" x2="109.0654" y1="573.5508" y2="593.5508"/><polygon fill="#181818" points="105.0654,583.5508,109.0654,593.5508,113.0654,583.5508,109.0654,587.5508" style="stroke:#181818;stroke-width:1;stroke-linejoin:miter;stroke-miterlimit:10;"/><line style="stroke:#181818;stroke-width:1;" x1="109.0654" x2="109.0654" y1="627.6836" y2="647.6836"/><polygon fill="#181818" points="105.0654,637.6836,109.0654,647.6836,113.0654,637.6836,109.0654,641.6836" style="stroke:#181818;stroke-width:1;stroke-linejoin:miter;stroke-miterlimit:10;"/><line style="stroke:#181818;stroke-width:1;" x1="325.002" x2="325.002" y1="411.1523" y2="431.1523"/><polygon fill="#181818" points="321.002,421.1523,325.002,431.1523,329.002,421.1523,325.002,425.1523" style="stroke:#181818;stroke-width:1;stroke-linejoin:miter;stroke-miterlimit:10;"/><line style="stroke:#181818;stroke-width:1;" x1="325.002" x2="325.002" y1="465.2852" y2="485.2852"/><polygon fill="#181818" points="321.002,475.2852,325.002,485.2852,329.002,475.2852,325.002,479.2852" style="stroke:#181818;stroke-width:1;stroke-linejoin:miter;stroke-miterlimit:10;"/><line style="stroke:#181818;stroke-width:1;" x1="146.7896" x2="109.0654" y1="355.0195" y2="355.0195"/><line style="stroke:#181818;stroke-width:1;" x1="109.0654" x2="109.0654" y1="355.0195" y2="377.0195"/><polygon fill="#181818" points="105.0654,367.0195,109.0654,377.0195,113.0654,367.0195,109.0654,371.0195" style="stroke:#181818;stroke-width:1;stroke-linejoin:miter;stroke-miterlimit:10;"/><line style="stroke:#181818;stroke-width:1;" x1="287.2778" x2="325.002" y1="355.0195" y2="355.0195"/><line style="stroke:#181818;stroke-width:1;" x1="325.002" x2="325.002" y1="355.0195" y2="377.0195"/><polygon fill="#181818" points="321.002,367.0195,325.002,377.0195,329.002,367.0195,325.002,371.0195" style="stroke:#181818;stroke-width:1;stroke-linejoin:miter;stroke-miterlimit:10;"/><line style="stroke:#181818;stroke-width:1;" x1="109.0654" x2="109.0654" y1="681.8164" y2="699.8164"/><line style="stroke:#181818;stroke-width:1;" x1="109.0654" x2="205.0337" y1="699.8164" y2="699.8164"/><polygon fill="#181818" points="195.0337,695.8164,205.0337,699.8164,195.0337,703.8164,199.0337,699.8164" style="stroke:#181818;stroke-width:1;stroke-linejoin:miter;stroke-miterlimit:10;"/><line style="stroke:#181818;stroke-width:1;" x1="325.002" x2="325.002" y1="519.418" y2="699.8164"/><line style="stroke:#181818;stroke-width:1;" x1="325.002" x2="229.0337" y1="699.8164" y2="699.8164"/><polygon fill="#181818" points="239.0337,695.8164,229.0337,699.8164,239.0337,703.8164,235.0337,699.8164" style="stroke:#181818;stroke-width:1;stroke-linejoin:miter;stroke-miterlimit:10;"/><line style="stroke:#181818;stroke-width:1;" x1="217.0337" x2="217.0337" y1="323.0195" y2="343.0195"/><polygon fill="#181818" points="213.0337,333.0195,217.0337,343.0195,221.0337,333.0195,217.0337,337.0195" style="stroke:#181818;stroke-width:1;stroke-linejoin:miter;stroke-miterlimit:10;"/><line style="stroke:#181818;stroke-width:1;" x1="528.1543" x2="528.1543" y1="214.7539" y2="234.7539"/><polygon fill="#181818" points="524.1543,224.7539,528.1543,234.7539,532.1543,224.7539,528.1543,228.7539" style="stroke:#181818;stroke-width:1;stroke-linejoin:miter;stroke-miterlimit:10;"/><line style="stroke:#181818;stroke-width:1;" x1="328.644" x2="217.0337" y1="158.6211" y2="158.6211"/><line style="stroke:#181818;stroke-width:1;" x1="217.0337" x2="217.0337" y1="158.6211" y2="180.6211"/><polygon fill="#181818" points="213.0337,170.6211,217.0337,180.6211,221.0337,170.6211,217.0337,174.6211" style="stroke:#181818;stroke-width:1;stroke-linejoin:miter;stroke-miterlimit:10;"/><line style="stroke:#181818;stroke-width:1;" x1="416.5439" x2="528.1543" y1="158.6211" y2="158.6211"/><line style="stroke:#181818;stroke-width:1;" x1="528.1543" x2="528.1543" y1="158.6211" y2="180.6211"/><polygon fill="#181818" points="524.1543,170.6211,528.1543,180.6211,532.1543,170.6211,528.1543,174.6211" style="stroke:#181818;stroke-width:1;stroke-linejoin:miter;stroke-miterlimit:10;"/><line style="stroke:#181818;stroke-width:1;" x1="217.0337" x2="217.0337" y1="711.8164" y2="729.8164"/><line style="stroke:#181818;stroke-width:1;" x1="217.0337" x2="360.594" y1="729.8164" y2="729.8164"/><polygon fill="#181818" points="350.594,725.8164,360.594,729.8164,350.594,733.8164,354.594,729.8164" style="stroke:#181818;stroke-width:1;stroke-linejoin:miter;stroke-miterlimit:10;"/><line style="stroke:#181818;stroke-width:1;" x1="528.1543" x2="528.1543" y1="268.8867" y2="729.8164"/><line style="stroke:#181818;stroke-width:1;" x1="528.1543" x2="384.594" y1="729.8164" y2="729.8164"/><polygon fill="#181818" points="394.594,725.8164,384.594,729.8164,394.594,733.8164,390.594,729.8164" style="stroke:#181818;stroke-width:1;stroke-linejoin:miter;stroke-miterlimit:10;"/><line style="stroke:#181818;stroke-width:1;" x1="372.594" x2="372.594" y1="126.6211" y2="146.6211"/><polygon fill="#181818" points="368.594,136.6211,372.594,146.6211,376.594,136.6211,372.594,140.6211" style="stroke:#181818;stroke-width:1;stroke-linejoin:miter;stroke-miterlimit:10;"/><line style="stroke:#181818;stroke-width:1;" x1="372.594" x2="372.594" y1="741.8164" y2="761.8164"/><polygon fill="#181818" points="368.594,751.8164,372.594,761.8164,376.594,751.8164,372.594,755.8164" style="stroke:#181818;stroke-width:1;stroke-linejoin:miter;stroke-miterlimit:10;"/><?plantuml-src PP71JiCm44Jl-Oez9eVm0Iq2SQYGgAY0GkzEEaxSkdPaRuIKhyTsI4FeCVDsPyORLgn1dwqovyuwfhtGyEMRimEyfvmdKFe4kX7SLTt555dcMJZELlJU2wsa6XGS3ELNksATAKdv7yoF1N4RXrv4aH6jwCaqg2pJndc6rZ3hXNo0yp37INuDwQB1pCi7slQ1HnopqaUYnbukCF_obXwzP2SQkYzdZpWGCfCUk0SFOtO4NwZW6b5T9xUgFbifwM1T850ypuORdd1cUaQw4dW2crWmt_Tr7NeKKONsGTb1cTkAbKPhUdDRSYeVochhvjpH_WCdr8pZw6-EIcRBbFJAR-laTDbnRnTE-lkxqlAuwjbsFm00?></g></svg>